<?xml version="1.0" standalone="no"?>
<!DOCTYPE svg PUBLIC "-//W3C//DTD SVG 20010904//EN"
 "http://www.w3.org/TR/2001/REC-SVG-20010904/DTD/svg10.dtd">
<svg version="1.0" xmlns="http://www.w3.org/2000/svg"
 width="353.000000pt" height="340.000000pt" viewBox="0 0 353.000000 340.000000"
 preserveAspectRatio="xMidYMid meet">
<metadata>
Created by potrace 1.15, written by Peter Selinger 2001-2017
</metadata>
<g transform="translate(0.000000,340.000000) scale(0.100000,-0.100000)"
fill="#fff" stroke="none">
<path d="M2023 3303 c-19 -4 -33 -15 -93 -79 -36 -38 -130 -249 -174 -394 -10
-30 -21 -64 -26 -75 -28 -65 -87 -390 -95 -517 l-7 -118 30 0 c21 0 33 6 36
18 4 10 21 25 38 33 51 22 71 67 157 354 5 17 19 66 31 110 36 129 116 365
179 530 17 44 31 90 31 102 0 36 -39 49 -107 36z"/>
<path d="M2353 3303 c-44 -9 -115 -97 -159 -198 -20 -44 -39 -89 -44 -100 -69
-157 -122 -343 -175 -624 -8 -42 -15 -118 -15 -168 l0 -93 28 0 c19 0 30 7 37
22 6 13 19 25 30 27 31 5 45 21 73 81 25 55 39 99 92 285 77 272 192 614 231
687 5 10 9 29 9 43 0 38 -38 51 -107 38z"/>
<path d="M1040 3285 c-8 -2 -88 -9 -178 -16 -89 -6 -165 -16 -168 -20 -3 -5
-29 -9 -58 -9 -35 0 -58 -5 -66 -15 -7 -8 -27 -17 -46 -21 -35 -6 -94 -55 -94
-77 0 -7 -3 -21 -6 -33 -4 -14 3 -28 20 -45 14 -13 26 -31 26 -41 0 -14 -78
-198 -147 -348 -61 -133 -173 -467 -173 -519 0 -17 6 -21 34 -21 31 0 40 8
117 110 148 195 175 234 214 310 73 140 78 147 140 165 64 18 181 85 231 131
19 19 57 39 91 49 78 23 107 40 111 65 3 21 2 21 -156 14 -88 -4 -167 -4 -176
-1 -14 6 -13 14 14 67 32 63 39 69 130 95 111 33 334 115 348 128 28 28 4 37
-96 36 -53 -1 -104 -3 -112 -4z"/>
<path d="M1650 3183 c-75 -12 -85 -21 -112 -91 -14 -37 -38 -112 -52 -167 -15
-55 -34 -122 -41 -150 -8 -27 -17 -72 -21 -100 -7 -54 -23 -79 -67 -101 -25
-13 -28 -13 -35 3 -19 49 -2 218 42 393 25 100 23 125 -10 147 -21 13 -35 14
-82 7 -53 -9 -57 -11 -79 -54 -13 -25 -44 -120 -69 -210 -85 -308 -70 -485 47
-545 55 -29 129 -16 210 38 24 16 27 16 41 0 8 -10 18 -31 22 -48 13 -57 28
-85 47 -85 11 0 19 6 19 13 0 7 13 24 28 38 17 14 36 47 46 79 10 30 21 64 26
75 14 30 38 131 50 210 12 79 45 207 96 371 40 129 40 134 14 162 -21 22 -55
26 -120 15z"/>
<path d="M815 2080 c-115 -30 -263 -60 -292 -60 -19 0 -81 -14 -136 -30 -186
-55 -182 -54 -179 -75 2 -11 4 -32 3 -47 0 -23 11 -32 84 -73 46 -26 98 -60
116 -76 17 -15 55 -37 85 -49 38 -16 52 -26 46 -35 -9 -16 -110 -103 -292
-250 -74 -60 -138 -114 -142 -119 -11 -16 -10 -64 2 -71 5 -3 19 -1 30 5 17 9
20 8 20 -10 0 -25 18 -25 50 0 14 11 28 20 32 20 13 0 148 89 228 149 123 93
363 249 389 253 19 2 25 10 27 37 4 33 4 34 -30 28 -28 -5 -43 0 -78 26 -24
17 -93 59 -154 94 -128 72 -148 89 -112 97 12 3 106 26 208 51 247 61 350 94
350 113 0 12 -11 14 -64 9 -50 -5 -67 -3 -76 8 -13 16 -65 18 -115 5z"/>
<path d="M1105 1983 c-48 -12 -75 -33 -75 -59 0 -7 5 -16 10 -19 14 -9 12 -32
-4 -68 -57 -125 -84 -201 -112 -322 -23 -94 -32 -115 -60 -144 -19 -19 -34
-37 -34 -41 0 -3 20 -23 45 -43 41 -35 48 -37 78 -28 17 5 72 15 121 21 49 6
124 20 165 30 42 10 110 25 151 33 55 10 76 18 78 30 3 12 -3 17 -20 17 -13 0
-28 4 -34 10 -5 5 -69 10 -141 11 -72 1 -135 4 -141 8 -8 5 -5 28 9 76 12 39
24 76 28 83 8 17 250 100 294 102 4 0 7 6 7 14 0 17 -34 24 -156 32 -52 4 -97
10 -99 14 -3 5 2 26 9 48 8 22 12 50 9 61 -5 19 -1 21 44 21 49 0 273 26 306
36 9 3 17 14 17 25 0 11 7 22 15 25 8 4 15 12 15 20 0 16 -10 17 -290 18 -116
1 -204 -4 -235 -11z"/>
<path d="M2035 1992 c-6 -4 -16 -19 -22 -34 -8 -18 -20 -28 -33 -28 -23 0 -36
-25 -72 -139 -13 -41 -28 -76 -34 -78 -11 -4 -54 153 -54 199 0 43 -10 57 -47
64 -27 5 -39 2 -59 -17 -14 -13 -24 -34 -24 -50 0 -15 -5 -40 -11 -56 -33 -83
-152 -434 -161 -471 -21 -92 12 -117 114 -86 69 21 78 34 99 147 7 37 16 67
21 67 4 0 19 -25 33 -56 19 -42 23 -66 19 -95 -9 -56 13 -84 76 -98 60 -13 74
-8 66 24 -7 29 7 40 24 20 16 -20 32 -19 77 4 21 11 55 23 76 27 33 5 35 8 21
19 -23 16 -13 29 33 44 50 17 277 203 323 263 20 26 48 73 64 103 16 32 39 61
52 67 20 9 24 19 24 55 0 42 -1 43 -32 43 -18 -1 -96 2 -173 5 -118 5 -144 9
-167 25 -34 25 -70 26 -90 3 -18 -20 -48 -86 -68 -148 -22 -69 -73 -171 -77
-157 -3 8 2 44 10 80 19 79 27 253 12 258 -5 2 -15 0 -20 -4z m343 -174 c22
-22 13 -37 -63 -115 -95 -97 -110 -91 -70 27 22 61 34 82 49 85 12 2 30 6 41
8 11 3 22 5 26 6 3 0 10 -4 17 -11z"/>
<path d="M405 981 c-6 -6 -63 -13 -128 -17 -119 -7 -147 -16 -147 -50 0 -18
27 -44 70 -67 29 -16 32 -21 27 -50 -3 -17 -22 -118 -41 -224 -20 -105 -37
-220 -39 -255 -2 -59 0 -63 21 -66 17 -3 22 -10 22 -31 0 -31 16 -51 41 -51
14 0 29 34 69 160 28 88 53 160 57 160 3 0 58 -52 122 -116 64 -64 134 -129
156 -144 22 -16 66 -56 99 -89 105 -110 128 -104 59 15 -25 43 -101 164 -170
268 -68 103 -122 194 -119 201 4 12 35 30 221 130 79 42 237 148 256 171 18
21 -6 36 -46 29 -96 -16 -142 -17 -188 -1 -32 11 -83 16 -157 16 -62 0 -111 4
-115 10 -8 13 -58 13 -70 1z"/>
<path d="M2357 959 c-24 -14 -47 -69 -47 -114 0 -35 0 -35 43 -35 55 0 82 19
100 74 13 39 13 47 1 65 -17 23 -66 28 -97 10z"/>
<path d="M3245 909 c-75 -7 -100 -12 -185 -38 -59 -19 -112 -77 -166 -181 -24
-45 -30 -51 -32 -32 -2 12 1 54 7 92 17 107 15 140 -8 140 -12 0 -25 -11 -33
-27 -7 -16 -23 -29 -36 -31 -12 -2 -22 -4 -22 -5 -2 -22 -69 -202 -76 -204
-11 -4 -39 105 -50 189 -6 43 -10 48 -41 59 -31 10 -37 9 -59 -12 -13 -12 -24
-32 -24 -44 0 -12 -12 -55 -26 -96 -152 -434 -159 -460 -132 -487 14 -14 84
-16 92 -3 3 4 19 11 36 14 35 8 45 26 64 116 7 36 17 66 23 68 17 6 56 -96 49
-129 -7 -35 16 -84 41 -91 10 -3 34 -8 54 -11 35 -6 37 -5 42 26 8 57 40 168
47 168 4 0 11 -20 15 -45 5 -39 13 -51 47 -75 32 -24 52 -30 90 -30 186 0 419
129 469 259 21 53 26 122 14 162 -10 31 -35 30 -103 -5 -78 -40 -312 -127
-324 -120 -10 6 29 82 61 117 29 32 112 77 210 114 93 35 121 51 121 71 0 10
5 23 11 29 17 17 3 30 -29 25 -18 -2 -33 2 -41 12 -8 9 -16 15 -20 14 -3 0
-42 -4 -86 -9z"/>
<path d="M1313 884 c-29 -13 -53 -29 -53 -34 0 -6 -39 -55 -87 -109 -221 -246
-323 -382 -323 -431 0 -40 24 -60 73 -60 35 0 46 6 82 44 36 39 97 71 170 89
5 1 12 -23 15 -53 3 -30 11 -65 18 -77 7 -12 12 -32 12 -44 0 -25 49 -105 69
-114 8 -3 24 4 36 15 18 17 25 47 46 196 19 142 27 178 42 185 24 14 34 5 42
-38 9 -48 83 -136 137 -164 53 -27 125 -49 163 -49 17 0 72 11 123 25 101 27
180 71 249 138 24 22 46 38 50 34 3 -4 -4 -59 -16 -123 l-22 -116 20 -22 c14
-15 21 -36 21 -64 0 -33 4 -42 18 -42 20 0 85 159 123 297 12 43 32 116 46
163 41 139 56 207 50 222 -2 8 -24 20 -47 27 -54 16 -98 1 -106 -38 -15 -68
-57 -218 -65 -233 -12 -22 -29 -23 -29 -3 0 29 -29 27 -121 -10 -128 -52 -211
-74 -301 -81 -95 -8 -118 5 -118 69 0 68 24 103 88 128 72 27 184 35 250 19
68 -16 86 -8 106 45 19 50 14 70 -30 104 -30 24 -154 63 -258 82 -63 11 -70
10 -82 -6 -8 -10 -44 -29 -81 -42 -54 -19 -80 -36 -129 -84 -33 -33 -63 -56
-67 -53 -4 4 -4 49 -1 101 6 81 5 96 -11 113 -23 25 -37 24 -102 -6z"/>
</g>
</svg>
